<mxfile host="app.diagrams.net" modified="2023-09-23T17:21:05.874Z" agent="Mozilla/5.0 (Windows NT 10.0; Win64; x64) AppleWebKit/537.36 (KHTML, like Gecko) Chrome/109.0.0.0 Safari/537.36" etag="8lQkcCxaoEK70gxSVuY6" version="21.8.1" type="device">
  <diagram name="Страница — 1" id="lfIOQGQECNO_FDbwhC6k">
    <mxGraphModel dx="812" dy="418" grid="1" gridSize="10" guides="1" tooltips="1" connect="1" arrows="1" fold="1" page="1" pageScale="1" pageWidth="827" pageHeight="1169" math="0" shadow="0">
      <root>
        <mxCell id="0" />
        <mxCell id="1" parent="0" />
        <mxCell id="8TnmgE3m9RycerySU0GE-2" value="Главная страница" style="shape=hexagon;perimeter=hexagonPerimeter2;whiteSpace=wrap;html=1;fixedSize=1;fillColor=#d5e8d4;strokeColor=#82b366;" vertex="1" parent="1">
          <mxGeometry x="320" y="250" width="280" height="80" as="geometry" />
        </mxCell>
        <mxCell id="8TnmgE3m9RycerySU0GE-3" value="" style="endArrow=classic;html=1;rounded=0;" edge="1" parent="1" target="8TnmgE3m9RycerySU0GE-4">
          <mxGeometry width="50" height="50" relative="1" as="geometry">
            <mxPoint x="600" y="290" as="sourcePoint" />
            <mxPoint x="680" y="280" as="targetPoint" />
          </mxGeometry>
        </mxCell>
        <mxCell id="8TnmgE3m9RycerySU0GE-4" value="строка поиска" style="rounded=0;whiteSpace=wrap;html=1;fillColor=#dae8fc;strokeColor=#6c8ebf;gradientColor=#7ea6e0;" vertex="1" parent="1">
          <mxGeometry x="650" y="230" width="120" height="60" as="geometry" />
        </mxCell>
        <mxCell id="8TnmgE3m9RycerySU0GE-5" value="обратная связь" style="rounded=0;whiteSpace=wrap;html=1;fillColor=#dae8fc;strokeColor=#6c8ebf;gradientColor=#7ea6e0;" vertex="1" parent="1">
          <mxGeometry x="620" y="110" width="120" height="60" as="geometry" />
        </mxCell>
        <mxCell id="8TnmgE3m9RycerySU0GE-6" value="" style="endArrow=classic;html=1;rounded=0;exitX=0.964;exitY=0.1;exitDx=0;exitDy=0;exitPerimeter=0;entryX=0.25;entryY=1;entryDx=0;entryDy=0;" edge="1" parent="1" source="8TnmgE3m9RycerySU0GE-2" target="8TnmgE3m9RycerySU0GE-5">
          <mxGeometry width="50" height="50" relative="1" as="geometry">
            <mxPoint x="590" y="250" as="sourcePoint" />
            <mxPoint x="640" y="200" as="targetPoint" />
          </mxGeometry>
        </mxCell>
        <mxCell id="8TnmgE3m9RycerySU0GE-7" value="о компании" style="rounded=0;whiteSpace=wrap;html=1;fillColor=#dae8fc;strokeColor=#6c8ebf;gradientColor=#7ea6e0;" vertex="1" parent="1">
          <mxGeometry x="100" y="120" width="120" height="60" as="geometry" />
        </mxCell>
        <mxCell id="8TnmgE3m9RycerySU0GE-8" value="" style="endArrow=classic;html=1;rounded=0;exitX=0.004;exitY=0.388;exitDx=0;exitDy=0;exitPerimeter=0;" edge="1" parent="1" source="8TnmgE3m9RycerySU0GE-2" target="8TnmgE3m9RycerySU0GE-7">
          <mxGeometry width="50" height="50" relative="1" as="geometry">
            <mxPoint x="310" y="240" as="sourcePoint" />
            <mxPoint x="540" y="190" as="targetPoint" />
          </mxGeometry>
        </mxCell>
        <mxCell id="8TnmgE3m9RycerySU0GE-9" value="" style="endArrow=classic;html=1;rounded=0;" edge="1" parent="1" target="8TnmgE3m9RycerySU0GE-10">
          <mxGeometry width="50" height="50" relative="1" as="geometry">
            <mxPoint x="404" y="250" as="sourcePoint" />
            <mxPoint x="414" y="90" as="targetPoint" />
          </mxGeometry>
        </mxCell>
        <mxCell id="8TnmgE3m9RycerySU0GE-10" value="Профиль пользователя" style="rounded=0;whiteSpace=wrap;html=1;fillColor=#dae8fc;strokeColor=#6c8ebf;gradientColor=#7ea6e0;" vertex="1" parent="1">
          <mxGeometry x="190" y="20" width="120" height="60" as="geometry" />
        </mxCell>
        <mxCell id="8TnmgE3m9RycerySU0GE-11" value="" style="endArrow=classic;html=1;rounded=0;exitX=0.443;exitY=0.013;exitDx=0;exitDy=0;exitPerimeter=0;" edge="1" parent="1" source="8TnmgE3m9RycerySU0GE-2" target="8TnmgE3m9RycerySU0GE-12">
          <mxGeometry width="50" height="50" relative="1" as="geometry">
            <mxPoint x="450" y="240" as="sourcePoint" />
            <mxPoint x="460" y="100" as="targetPoint" />
          </mxGeometry>
        </mxCell>
        <mxCell id="8TnmgE3m9RycerySU0GE-12" value="погода" style="rounded=0;whiteSpace=wrap;html=1;fillColor=#dae8fc;strokeColor=#6c8ebf;gradientColor=#7ea6e0;" vertex="1" parent="1">
          <mxGeometry x="400" y="50" width="120" height="60" as="geometry" />
        </mxCell>
        <mxCell id="8TnmgE3m9RycerySU0GE-13" value="" style="endArrow=none;html=1;rounded=0;entryX=0.525;entryY=1.025;entryDx=0;entryDy=0;entryPerimeter=0;" edge="1" parent="1" target="8TnmgE3m9RycerySU0GE-2">
          <mxGeometry width="50" height="50" relative="1" as="geometry">
            <mxPoint x="470" y="370" as="sourcePoint" />
            <mxPoint x="500" y="390" as="targetPoint" />
          </mxGeometry>
        </mxCell>
        <mxCell id="8TnmgE3m9RycerySU0GE-14" value="каталог" style="rounded=0;whiteSpace=wrap;html=1;fillColor=#dae8fc;gradientColor=#7ea6e0;strokeColor=#6c8ebf;" vertex="1" parent="1">
          <mxGeometry x="60" y="390" width="120" height="60" as="geometry" />
        </mxCell>
        <mxCell id="8TnmgE3m9RycerySU0GE-15" value="новости" style="rounded=0;whiteSpace=wrap;html=1;fillColor=#dae8fc;gradientColor=#7ea6e0;strokeColor=#6c8ebf;" vertex="1" parent="1">
          <mxGeometry x="230" y="390" width="120" height="60" as="geometry" />
        </mxCell>
        <mxCell id="8TnmgE3m9RycerySU0GE-16" value="объявления" style="rounded=0;whiteSpace=wrap;html=1;fillColor=#dae8fc;gradientColor=#7ea6e0;strokeColor=#6c8ebf;" vertex="1" parent="1">
          <mxGeometry x="390" y="390" width="120" height="60" as="geometry" />
        </mxCell>
        <mxCell id="8TnmgE3m9RycerySU0GE-17" value="услвги" style="rounded=0;whiteSpace=wrap;html=1;fillColor=#dae8fc;gradientColor=#7ea6e0;strokeColor=#6c8ebf;" vertex="1" parent="1">
          <mxGeometry x="540" y="390" width="120" height="60" as="geometry" />
        </mxCell>
        <mxCell id="8TnmgE3m9RycerySU0GE-18" value="форум" style="rounded=0;whiteSpace=wrap;html=1;fillColor=#dae8fc;gradientColor=#7ea6e0;strokeColor=#6c8ebf;" vertex="1" parent="1">
          <mxGeometry x="710" y="390" width="120" height="60" as="geometry" />
        </mxCell>
        <mxCell id="8TnmgE3m9RycerySU0GE-20" value="" style="endArrow=classic;html=1;rounded=0;entryX=0.5;entryY=0;entryDx=0;entryDy=0;" edge="1" parent="1" target="8TnmgE3m9RycerySU0GE-18">
          <mxGeometry width="50" height="50" relative="1" as="geometry">
            <mxPoint x="470" y="370" as="sourcePoint" />
            <mxPoint x="790" y="370" as="targetPoint" />
            <Array as="points">
              <mxPoint x="770" y="370" />
            </Array>
          </mxGeometry>
        </mxCell>
        <mxCell id="8TnmgE3m9RycerySU0GE-21" value="" style="endArrow=classic;html=1;rounded=0;entryX=0.5;entryY=0;entryDx=0;entryDy=0;" edge="1" parent="1" target="8TnmgE3m9RycerySU0GE-17">
          <mxGeometry width="50" height="50" relative="1" as="geometry">
            <mxPoint x="600" y="370" as="sourcePoint" />
            <mxPoint x="650" y="320" as="targetPoint" />
          </mxGeometry>
        </mxCell>
        <mxCell id="8TnmgE3m9RycerySU0GE-22" value="" style="endArrow=classic;html=1;rounded=0;entryX=0.667;entryY=0;entryDx=0;entryDy=0;entryPerimeter=0;" edge="1" parent="1" target="8TnmgE3m9RycerySU0GE-16">
          <mxGeometry width="50" height="50" relative="1" as="geometry">
            <mxPoint x="470" y="370" as="sourcePoint" />
            <mxPoint x="520" y="320" as="targetPoint" />
          </mxGeometry>
        </mxCell>
        <mxCell id="8TnmgE3m9RycerySU0GE-23" value="" style="endArrow=classic;html=1;rounded=0;entryX=0.653;entryY=0.034;entryDx=0;entryDy=0;entryPerimeter=0;" edge="1" parent="1" target="8TnmgE3m9RycerySU0GE-14">
          <mxGeometry width="50" height="50" relative="1" as="geometry">
            <mxPoint x="470" y="370" as="sourcePoint" />
            <mxPoint x="100" y="370" as="targetPoint" />
            <Array as="points">
              <mxPoint x="140" y="370" />
            </Array>
          </mxGeometry>
        </mxCell>
        <mxCell id="8TnmgE3m9RycerySU0GE-25" value="" style="endArrow=classic;html=1;rounded=0;entryX=0.426;entryY=-0.069;entryDx=0;entryDy=0;entryPerimeter=0;" edge="1" parent="1" target="8TnmgE3m9RycerySU0GE-15">
          <mxGeometry width="50" height="50" relative="1" as="geometry">
            <mxPoint x="280" y="370" as="sourcePoint" />
            <mxPoint x="330" y="320" as="targetPoint" />
          </mxGeometry>
        </mxCell>
        <mxCell id="8TnmgE3m9RycerySU0GE-27" value="" style="edgeStyle=orthogonalEdgeStyle;rounded=0;orthogonalLoop=1;jettySize=auto;html=1;" edge="1" parent="1" source="8TnmgE3m9RycerySU0GE-14" target="8TnmgE3m9RycerySU0GE-26">
          <mxGeometry relative="1" as="geometry" />
        </mxCell>
        <mxCell id="8TnmgE3m9RycerySU0GE-26" value="товары для дома" style="rounded=0;whiteSpace=wrap;html=1;" vertex="1" parent="1">
          <mxGeometry x="60" y="510" width="120" height="60" as="geometry" />
        </mxCell>
        <mxCell id="8TnmgE3m9RycerySU0GE-28" value="технологии" style="rounded=0;whiteSpace=wrap;html=1;" vertex="1" parent="1">
          <mxGeometry x="230" y="510" width="120" height="60" as="geometry" />
        </mxCell>
        <mxCell id="8TnmgE3m9RycerySU0GE-29" value="недвижимость" style="rounded=0;whiteSpace=wrap;html=1;" vertex="1" parent="1">
          <mxGeometry x="230" y="620" width="120" height="60" as="geometry" />
        </mxCell>
        <mxCell id="8TnmgE3m9RycerySU0GE-30" value="авто" style="rounded=0;whiteSpace=wrap;html=1;" vertex="1" parent="1">
          <mxGeometry x="230" y="720" width="120" height="60" as="geometry" />
        </mxCell>
        <mxCell id="8TnmgE3m9RycerySU0GE-31" value="" style="edgeStyle=orthogonalEdgeStyle;rounded=0;orthogonalLoop=1;jettySize=auto;html=1;" edge="1" parent="1">
          <mxGeometry relative="1" as="geometry">
            <mxPoint x="289.66" y="450" as="sourcePoint" />
            <mxPoint x="289.66" y="510" as="targetPoint" />
            <Array as="points">
              <mxPoint x="289.66" y="450" />
              <mxPoint x="289.66" y="450" />
            </Array>
          </mxGeometry>
        </mxCell>
        <mxCell id="8TnmgE3m9RycerySU0GE-32" value="" style="edgeStyle=orthogonalEdgeStyle;rounded=0;orthogonalLoop=1;jettySize=auto;html=1;" edge="1" parent="1">
          <mxGeometry relative="1" as="geometry">
            <mxPoint x="290" y="570" as="sourcePoint" />
            <mxPoint x="289.66" y="620" as="targetPoint" />
            <Array as="points">
              <mxPoint x="289.66" y="610" />
              <mxPoint x="289.66" y="610" />
            </Array>
          </mxGeometry>
        </mxCell>
        <mxCell id="8TnmgE3m9RycerySU0GE-33" value="" style="edgeStyle=orthogonalEdgeStyle;rounded=0;orthogonalLoop=1;jettySize=auto;html=1;exitX=0.483;exitY=1.047;exitDx=0;exitDy=0;exitPerimeter=0;" edge="1" parent="1" source="8TnmgE3m9RycerySU0GE-29">
          <mxGeometry relative="1" as="geometry">
            <mxPoint x="290.14" y="670" as="sourcePoint" />
            <mxPoint x="289.8" y="720" as="targetPoint" />
            <Array as="points">
              <mxPoint x="290" y="683" />
              <mxPoint x="290" y="680" />
            </Array>
          </mxGeometry>
        </mxCell>
        <mxCell id="8TnmgE3m9RycerySU0GE-34" value="покупка" style="rounded=0;whiteSpace=wrap;html=1;" vertex="1" parent="1">
          <mxGeometry x="400" y="515" width="120" height="60" as="geometry" />
        </mxCell>
        <mxCell id="8TnmgE3m9RycerySU0GE-35" value="продажа" style="rounded=0;whiteSpace=wrap;html=1;" vertex="1" parent="1">
          <mxGeometry x="400" y="625" width="120" height="60" as="geometry" />
        </mxCell>
        <mxCell id="8TnmgE3m9RycerySU0GE-36" value="обмен" style="rounded=0;whiteSpace=wrap;html=1;" vertex="1" parent="1">
          <mxGeometry x="400" y="725" width="120" height="60" as="geometry" />
        </mxCell>
        <mxCell id="8TnmgE3m9RycerySU0GE-37" value="" style="edgeStyle=orthogonalEdgeStyle;rounded=0;orthogonalLoop=1;jettySize=auto;html=1;" edge="1" parent="1">
          <mxGeometry relative="1" as="geometry">
            <mxPoint x="460" y="575" as="sourcePoint" />
            <mxPoint x="459.6600000000001" y="625" as="targetPoint" />
            <Array as="points">
              <mxPoint x="459.6600000000001" y="615" />
              <mxPoint x="459.6600000000001" y="615" />
            </Array>
          </mxGeometry>
        </mxCell>
        <mxCell id="8TnmgE3m9RycerySU0GE-38" value="" style="edgeStyle=orthogonalEdgeStyle;rounded=0;orthogonalLoop=1;jettySize=auto;html=1;exitX=0.483;exitY=1.047;exitDx=0;exitDy=0;exitPerimeter=0;" edge="1" parent="1" source="8TnmgE3m9RycerySU0GE-35">
          <mxGeometry relative="1" as="geometry">
            <mxPoint x="460.14" y="675" as="sourcePoint" />
            <mxPoint x="459.79999999999995" y="725" as="targetPoint" />
            <Array as="points">
              <mxPoint x="460" y="688" />
              <mxPoint x="460" y="685" />
            </Array>
          </mxGeometry>
        </mxCell>
        <mxCell id="8TnmgE3m9RycerySU0GE-39" value="" style="edgeStyle=orthogonalEdgeStyle;rounded=0;orthogonalLoop=1;jettySize=auto;html=1;exitX=0.5;exitY=1;exitDx=0;exitDy=0;" edge="1" parent="1" source="8TnmgE3m9RycerySU0GE-16">
          <mxGeometry relative="1" as="geometry">
            <mxPoint x="450" y="455" as="sourcePoint" />
            <mxPoint x="450" y="515" as="targetPoint" />
            <Array as="points" />
          </mxGeometry>
        </mxCell>
        <mxCell id="8TnmgE3m9RycerySU0GE-41" value="ремонт" style="rounded=0;whiteSpace=wrap;html=1;" vertex="1" parent="1">
          <mxGeometry x="550" y="515" width="120" height="60" as="geometry" />
        </mxCell>
        <mxCell id="8TnmgE3m9RycerySU0GE-42" value="репетиторство" style="rounded=0;whiteSpace=wrap;html=1;" vertex="1" parent="1">
          <mxGeometry x="550" y="625" width="120" height="60" as="geometry" />
        </mxCell>
        <mxCell id="8TnmgE3m9RycerySU0GE-43" value="верстка" style="rounded=0;whiteSpace=wrap;html=1;" vertex="1" parent="1">
          <mxGeometry x="550" y="725" width="120" height="60" as="geometry" />
        </mxCell>
        <mxCell id="8TnmgE3m9RycerySU0GE-44" value="" style="edgeStyle=orthogonalEdgeStyle;rounded=0;orthogonalLoop=1;jettySize=auto;html=1;" edge="1" parent="1">
          <mxGeometry relative="1" as="geometry">
            <mxPoint x="610" y="575" as="sourcePoint" />
            <mxPoint x="609.6600000000001" y="625" as="targetPoint" />
            <Array as="points">
              <mxPoint x="609.6600000000001" y="615" />
              <mxPoint x="609.6600000000001" y="615" />
            </Array>
          </mxGeometry>
        </mxCell>
        <mxCell id="8TnmgE3m9RycerySU0GE-45" value="" style="edgeStyle=orthogonalEdgeStyle;rounded=0;orthogonalLoop=1;jettySize=auto;html=1;exitX=0.483;exitY=1.047;exitDx=0;exitDy=0;exitPerimeter=0;" edge="1" parent="1" source="8TnmgE3m9RycerySU0GE-42">
          <mxGeometry relative="1" as="geometry">
            <mxPoint x="610.14" y="675" as="sourcePoint" />
            <mxPoint x="609.8" y="725" as="targetPoint" />
            <Array as="points">
              <mxPoint x="610" y="688" />
              <mxPoint x="610" y="685" />
            </Array>
          </mxGeometry>
        </mxCell>
        <mxCell id="8TnmgE3m9RycerySU0GE-46" value="" style="edgeStyle=orthogonalEdgeStyle;rounded=0;orthogonalLoop=1;jettySize=auto;html=1;exitX=0.5;exitY=1;exitDx=0;exitDy=0;" edge="1" parent="1">
          <mxGeometry relative="1" as="geometry">
            <mxPoint x="609.66" y="450" as="sourcePoint" />
            <mxPoint x="609.66" y="515" as="targetPoint" />
            <Array as="points">
              <mxPoint x="609.66" y="450" />
            </Array>
          </mxGeometry>
        </mxCell>
        <mxCell id="8TnmgE3m9RycerySU0GE-49" value="важное" style="rounded=0;whiteSpace=wrap;html=1;" vertex="1" parent="1">
          <mxGeometry x="720" y="515" width="120" height="60" as="geometry" />
        </mxCell>
        <mxCell id="8TnmgE3m9RycerySU0GE-50" value="технологии" style="rounded=0;whiteSpace=wrap;html=1;" vertex="1" parent="1">
          <mxGeometry x="720" y="625" width="120" height="60" as="geometry" />
        </mxCell>
        <mxCell id="8TnmgE3m9RycerySU0GE-51" value="недвижимость" style="rounded=0;whiteSpace=wrap;html=1;" vertex="1" parent="1">
          <mxGeometry x="720" y="725" width="120" height="60" as="geometry" />
        </mxCell>
        <mxCell id="8TnmgE3m9RycerySU0GE-52" value="" style="edgeStyle=orthogonalEdgeStyle;rounded=0;orthogonalLoop=1;jettySize=auto;html=1;" edge="1" parent="1">
          <mxGeometry relative="1" as="geometry">
            <mxPoint x="780" y="575" as="sourcePoint" />
            <mxPoint x="779.6600000000001" y="625" as="targetPoint" />
            <Array as="points">
              <mxPoint x="779.6600000000001" y="615" />
              <mxPoint x="779.6600000000001" y="615" />
            </Array>
          </mxGeometry>
        </mxCell>
        <mxCell id="8TnmgE3m9RycerySU0GE-53" value="" style="edgeStyle=orthogonalEdgeStyle;rounded=0;orthogonalLoop=1;jettySize=auto;html=1;exitX=0.483;exitY=1.047;exitDx=0;exitDy=0;exitPerimeter=0;" edge="1" parent="1" source="8TnmgE3m9RycerySU0GE-50">
          <mxGeometry relative="1" as="geometry">
            <mxPoint x="780.14" y="675" as="sourcePoint" />
            <mxPoint x="779.8" y="725" as="targetPoint" />
            <Array as="points">
              <mxPoint x="780" y="688" />
              <mxPoint x="780" y="685" />
            </Array>
          </mxGeometry>
        </mxCell>
        <mxCell id="8TnmgE3m9RycerySU0GE-54" value="" style="edgeStyle=orthogonalEdgeStyle;rounded=0;orthogonalLoop=1;jettySize=auto;html=1;exitX=0.5;exitY=1;exitDx=0;exitDy=0;" edge="1" parent="1">
          <mxGeometry relative="1" as="geometry">
            <mxPoint x="770" y="450" as="sourcePoint" />
            <mxPoint x="770" y="515" as="targetPoint" />
            <Array as="points">
              <mxPoint x="770" y="450" />
            </Array>
          </mxGeometry>
        </mxCell>
        <mxCell id="8TnmgE3m9RycerySU0GE-56" value="бытовая техника" style="rounded=0;whiteSpace=wrap;html=1;" vertex="1" parent="1">
          <mxGeometry x="60" y="615" width="120" height="60" as="geometry" />
        </mxCell>
        <mxCell id="8TnmgE3m9RycerySU0GE-57" value="компьютеры" style="rounded=0;whiteSpace=wrap;html=1;" vertex="1" parent="1">
          <mxGeometry x="60" y="725" width="120" height="60" as="geometry" />
        </mxCell>
        <mxCell id="8TnmgE3m9RycerySU0GE-58" value="авто и мото" style="rounded=0;whiteSpace=wrap;html=1;" vertex="1" parent="1">
          <mxGeometry x="60" y="825" width="120" height="60" as="geometry" />
        </mxCell>
        <mxCell id="8TnmgE3m9RycerySU0GE-59" value="" style="edgeStyle=orthogonalEdgeStyle;rounded=0;orthogonalLoop=1;jettySize=auto;html=1;" edge="1" parent="1">
          <mxGeometry relative="1" as="geometry">
            <mxPoint x="120" y="675" as="sourcePoint" />
            <mxPoint x="119.66000000000003" y="725" as="targetPoint" />
            <Array as="points">
              <mxPoint x="119.66000000000003" y="715" />
              <mxPoint x="119.66000000000003" y="715" />
            </Array>
          </mxGeometry>
        </mxCell>
        <mxCell id="8TnmgE3m9RycerySU0GE-60" value="" style="edgeStyle=orthogonalEdgeStyle;rounded=0;orthogonalLoop=1;jettySize=auto;html=1;exitX=0.483;exitY=1.047;exitDx=0;exitDy=0;exitPerimeter=0;" edge="1" parent="1" source="8TnmgE3m9RycerySU0GE-57">
          <mxGeometry relative="1" as="geometry">
            <mxPoint x="120.13999999999999" y="775" as="sourcePoint" />
            <mxPoint x="119.80000000000001" y="825" as="targetPoint" />
            <Array as="points">
              <mxPoint x="120" y="788" />
              <mxPoint x="120" y="785" />
            </Array>
          </mxGeometry>
        </mxCell>
        <mxCell id="8TnmgE3m9RycerySU0GE-61" value="" style="edgeStyle=orthogonalEdgeStyle;rounded=0;orthogonalLoop=1;jettySize=auto;html=1;" edge="1" parent="1">
          <mxGeometry relative="1" as="geometry">
            <mxPoint x="120" y="570" as="sourcePoint" />
            <mxPoint x="119.83000000000003" y="615" as="targetPoint" />
            <Array as="points">
              <mxPoint x="120.17" y="575" />
              <mxPoint x="120.17" y="575" />
            </Array>
          </mxGeometry>
        </mxCell>
      </root>
    </mxGraphModel>
  </diagram>
</mxfile>
